<?xml version="1.0" encoding="UTF-8" standalone="no"?>
<!-- Generator: Adobe Illustrator 16.0.0, SVG Export Plug-In . SVG Version: 6.00 Build 0)  -->

<svg
   xmlns:dc="http://purl.org/dc/elements/1.1/"
   xmlns:cc="http://creativecommons.org/ns#"
   xmlns:rdf="http://www.w3.org/1999/02/22-rdf-syntax-ns#"
   xmlns:svg="http://www.w3.org/2000/svg"
   xmlns="http://www.w3.org/2000/svg"
   xmlns:sodipodi="http://sodipodi.sourceforge.net/DTD/sodipodi-0.dtd"
   xmlns:inkscape="http://www.inkscape.org/namespaces/inkscape"
   width="1.69292in"
   x="0px"
   version="1.1"
   y="0px"
   gorn="0"
   height="0.896806in"
   viewBox="0 0 121.89 64.57"
   id="Layer_1"
   enable-background="new 0 0 121.89 64.57"
   xml:space="preserve"
   inkscape:version="0.91 r13725"
   sodipodi:docname="HX1_breadbord.svg"><metadata
     id="metadata190"><rdf:RDF><cc:Work
         rdf:about=""><dc:format>image/svg+xml</dc:format><dc:type
           rdf:resource="http://purl.org/dc/dcmitype/StillImage" /><dc:title /></cc:Work></rdf:RDF></metadata><defs
     id="defs188" /><sodipodi:namedview
     pagecolor="#ffffff"
     bordercolor="#666666"
     borderopacity="1"
     objecttolerance="10"
     gridtolerance="10"
     guidetolerance="10"
     inkscape:pageopacity="0"
     inkscape:pageshadow="2"
     inkscape:window-width="1366"
     inkscape:window-height="715"
     id="namedview186"
     showgrid="false"
     inkscape:zoom="3.2950682"
     inkscape:cx="64.285868"
     inkscape:cy="58.211743"
     inkscape:window-x="0"
     inkscape:window-y="24"
     inkscape:window-maximized="1"
     inkscape:current-layer="Layer_1" /><desc
     id="desc3"><referenceFile>ntx2.svg</referenceFile></desc><g
     id="g5"><path
       style="fill:#cfcfcf"
       d="m 16.009,42.021 0.9,22.5 0.9,0 0.6,-22.5 z"
       id="polygon7" /><path
       fill="#9E9E9E"
       gorn="0.1.1"
       id="connector8pin"
       d="M17.857,64.571H16.86l-0.002-0.048l-0.901-22.553h2.503L17.857,64.571z M16.957,64.472h0.803l0.598-22.401h-2.297L16.957,64.472z" /></g><g
     id="g10"><path
       style="fill:#cfcfcf"
       d="m 23.108,42.021 0.901,22.5 0.899,0 0.601,-22.5"
       id="polyline12" /><path
       style="fill:#9e9e9e"
       d="m 24.957,64.571 -0.996,0 -0.002,-0.048 -0.9,-22.501 0.099,-0.003 0.899,22.453 0.802,0 0.6,-22.452 0.1,10e-4 z"
       id="connector9pin" /></g><g
     id="g15"><path
       style="fill:#cfcfcf"
       d="m 30.209,42.021 0.9,22.5 0.901,0 0.599,-22.5"
       id="polyline17" /><path
       style="fill:#9e9e9e"
       d="m 32.059,64.571 -0.997,0 -0.002,-0.048 -0.901,-22.501 0.101,-0.003 0.897,22.453 0.804,0 0.599,-22.452 0.099,10e-4 z"
       id="connector10pin" /></g><g
     id="g20"><path
       style="fill:#cfcfcf"
       d="m 92.02,42.02 0.899,22.501 0.9,0 0.6,-22.501"
       id="polyline22" /><path
       style="fill:#9e9e9e"
       d="m 93.868,64.57 -0.997,0 -0.002,-0.047 -0.9,-22.502 0.1,-0.003 0.898,22.453 0.804,0 0.598,-22.451 0.101,10e-4 z"
       id="connector14pin" /></g><g
     id="g25"><path
       style="fill:#cfcfcf"
       d="m 70.511,42.021 0.9,22.5 0.901,0 0.599,-22.5 z"
       id="polygon27" /><path
       fill="#9E9E9E"
       gorn="0.5.1"
       id="connector11pin"
       d="M72.359,64.571h-0.996l-0.002-0.048l-0.902-22.553h2.504L72.359,64.571z M71.459,64.472h0.804l0.597-22.401h-2.296L71.459,64.472z" /></g><g
     id="g30"><path
       style="fill:#cfcfcf"
       d="m 77.68,42.021 0.9,22.5 0.9,0 0.6,-22.5"
       id="polyline32" /><path
       style="fill:#9e9e9e"
       d="m 79.529,64.571 -0.996,0 -0.002,-0.048 -0.9,-22.501 0.099,-0.003 0.899,22.453 0.803,0 0.599,-22.452 0.1,10e-4 z"
       id="connector12pin" /></g><g
     id="g35"><path
       style="fill:#cfcfcf"
       d="m 84.85,42.021 0.9,22.5 0.9,0 0.6,-22.5"
       id="polyline37" /><path
       style="fill:#9e9e9e"
       d="m 86.699,64.571 -0.998,0 -0.002,-0.048 -0.9,-22.501 0.101,-0.003 0.897,22.453 0.805,0 0.597,-22.452 0.102,10e-4 z"
       id="connector13pin" /></g><path
     style="fill:#b4b4b4"
     d="m 0,-0.001 121.89,0 0,42.521 -121.89,0 z"
     id="rect40" /><path
     d="M119.834,39.607c0,0.662-0.537,1.199-1.2,1.199H3.436c-0.663,0-1.2-0.537-1.2-1.199v-36.9c0-0.663,0.537-1.2,1.2-1.2h115.198c0.663,0,1.2,0.537,1.2,1.2V39.607z"
     id="path42"
     fill="#F3F3F3" /><g
     id="g44"><path
       fill="#010101"
       d="M42.522,10.042l-0.035,0.035c-0.017,0-0.061-0.001-0.134-0.003c-0.321-0.012-0.521-0.018-0.601-0.018c-0.12,0-0.31,0.007-0.57,0.021c-0.009-0.056-0.054-0.15-0.133-0.281L40.177,8.34l-0.391-0.594c-0.049-0.072-0.118-0.144-0.207-0.214l0.038-0.12c0.054,0.002,0.094,0.004,0.12,0.004c0.229,0,0.41-0.037,0.541-0.109c0.12-0.065,0.229-0.18,0.331-0.344c0.101-0.164,0.15-0.36,0.15-0.587c0-0.396-0.147-0.663-0.442-0.801c-0.141-0.066-0.346-0.099-0.615-0.099c-0.117,0-0.23,0.009-0.338,0.028c-0.023,0.229-0.035,0.621-0.035,1.174v1.838c0,0.558,0.016,0.921,0.046,1.09c0.012,0.068,0.052,0.111,0.119,0.13c0.035,0.009,0.173,0.021,0.411,0.035l0.036,0.035v0.235l-0.032,0.035c-0.234-0.014-0.596-0.021-1.083-0.021c-0.504,0-0.864,0.007-1.083,0.021l-0.035-0.032V9.807l0.035-0.035c0.239-0.014,0.377-0.026,0.412-0.035c0.067-0.019,0.107-0.062,0.119-0.13c0.03-0.168,0.046-0.532,0.046-1.09v-1.86c0-0.558-0.016-0.921-0.046-1.09c-0.012-0.068-0.052-0.111-0.119-0.13c-0.035-0.009-0.173-0.021-0.412-0.035l-0.035-0.035V5.127l0.035-0.032c0.23,0.014,0.591,0.021,1.083,0.021c0.286,0,0.519-0.004,0.696-0.011c0.354-0.014,0.619-0.021,0.795-0.021c0.405,0,0.703,0.036,0.893,0.109c0.256,0.099,0.427,0.265,0.514,0.499c0.042,0.115,0.063,0.251,0.063,0.408c0,0.637-0.359,1.09-1.076,1.357c0.117,0.197,0.241,0.396,0.373,0.598l0.541,0.833c0.318,0.492,0.531,0.772,0.637,0.84c0.054,0.035,0.129,0.053,0.225,0.053l0.035,0.035V10.042z"
       id="path46" /><path
       fill="#010101"
       d="M46.418,10.035l-0.038,0.039c-0.197-0.012-0.424-0.018-0.679-0.018c-0.199,0-0.391,0.006-0.573,0.018l-0.031-0.039l0.031-0.471l-0.682,0.521c-0.055,0.04-0.132,0.064-0.232,0.074c-0.04,0.004-0.087,0.007-0.141,0.007c-0.26,0-0.46-0.079-0.6-0.235c-0.14-0.157-0.209-0.374-0.209-0.65c0-0.366,0.116-0.625,0.348-0.777c0.251-0.166,0.756-0.316,1.516-0.45c0-0.373-0.099-0.623-0.295-0.749c-0.12-0.077-0.263-0.116-0.43-0.116c-0.183,0-0.326,0.037-0.432,0.112l-0.134,0.327l-0.046,0.024l-0.18-0.042L43.588,7.56l0.018-0.415c0.387-0.286,0.678-0.448,0.872-0.485c0.082-0.017,0.188-0.025,0.32-0.025c0.461,0,0.791,0.121,0.987,0.362C45.929,7.173,46,7.443,46,7.806c0,0.089-0.004,0.232-0.011,0.429c-0.012,0.328-0.018,0.547-0.018,0.658c0,0.354,0.006,0.58,0.018,0.677s0.039,0.159,0.083,0.185c0.043,0.026,0.146,0.041,0.311,0.045l0.035,0.039V10.035z M45.128,9.216V8.351c-0.387,0.084-0.647,0.175-0.782,0.272s-0.202,0.246-0.202,0.445c0,0.319,0.14,0.478,0.418,0.478C44.799,9.546,44.988,9.436,45.128,9.216z"
       id="path48" /><path
       fill="#010101"
       d="M51.163,10.045l-0.035,0.035c-0.229-0.016-0.437-0.024-0.622-0.024c-0.176,0-0.414,0.008-0.714,0.024l-0.031-0.024c0.009-0.115,0.014-0.307,0.014-0.577c-0.084,0.07-0.205,0.178-0.362,0.324c-0.194,0.18-0.321,0.288-0.38,0.323c-0.074,0.035-0.196,0.053-0.365,0.053c-0.4,0-0.725-0.151-0.971-0.454s-0.369-0.694-0.369-1.174c0-0.466,0.096-0.83,0.285-1.09c0.049-0.068,0.194-0.188,0.436-0.362c0.281-0.202,0.486-0.33,0.615-0.383c0.113-0.047,0.256-0.07,0.43-0.07c0.243,0,0.471,0.051,0.682,0.155V6.604c0-0.616-0.016-0.979-0.046-1.09c-0.017-0.061-0.064-0.098-0.144-0.112c-0.038-0.007-0.146-0.014-0.324-0.021l-0.035-0.039V5.148l0.035-0.039c0.45-0.047,0.904-0.144,1.361-0.292l0.077,0.042c0,0.009-0.005,0.125-0.014,0.348c-0.021,0.504-0.032,1.261-0.032,2.271v1.136c0,0.659,0.016,1.021,0.046,1.086c0.019,0.04,0.045,0.064,0.077,0.074c0.052,0.017,0.169,0.032,0.352,0.046l0.035,0.035V10.045z M49.774,8.21V7.549c-0.169-0.202-0.33-0.331-0.485-0.387c-0.105-0.038-0.218-0.056-0.337-0.056c-0.324,0-0.532,0.167-0.626,0.499c-0.052,0.186-0.077,0.392-0.077,0.619c0,0.485,0.113,0.845,0.341,1.079c0.119,0.125,0.28,0.187,0.481,0.187c0.166,0,0.321-0.053,0.464-0.158c0.129-0.094,0.205-0.195,0.229-0.302C49.771,8.997,49.774,8.724,49.774,8.21z"
       id="path50" /><path
       fill="#010101"
       d="M53.9,10.045l-0.035,0.035c-0.223-0.016-0.544-0.024-0.963-0.024c-0.42,0-0.74,0.008-0.96,0.024l-0.035-0.035V9.831l0.035-0.035c0.225-0.007,0.364-0.024,0.418-0.053c0.047-0.021,0.073-0.077,0.077-0.168c0.017-0.305,0.025-0.632,0.025-0.981V8.091c0-0.455-0.018-0.724-0.053-0.809c-0.02-0.047-0.069-0.076-0.151-0.088c-0.028-0.005-0.13-0.011-0.306-0.018l-0.035-0.035V6.945l0.035-0.039c0.449-0.04,0.903-0.137,1.36-0.292l0.073,0.046c-0.03,0.426-0.045,0.786-0.045,1.079v1.122c0,0.171,0.008,0.409,0.024,0.714c0.005,0.091,0.03,0.147,0.077,0.168c0.054,0.028,0.193,0.046,0.418,0.053L53.9,9.831V10.045z M53.415,5.458c0,0.15-0.053,0.278-0.158,0.385c-0.105,0.107-0.231,0.16-0.38,0.16c-0.149,0-0.277-0.053-0.383-0.16c-0.105-0.106-0.158-0.235-0.158-0.385c0-0.155,0.054-0.285,0.16-0.39s0.233-0.158,0.381-0.158c0.146,0,0.271,0.053,0.378,0.158C53.362,5.173,53.415,5.303,53.415,5.458z"
       id="path52" /><path
       fill="#010101"
       d="M58.176,8.312c0,0.83-0.278,1.391-0.836,1.684c-0.272,0.143-0.583,0.214-0.933,0.214c-0.539,0-0.949-0.156-1.231-0.468c-0.283-0.312-0.424-0.758-0.424-1.339c0-0.804,0.274-1.339,0.822-1.607c0.27-0.131,0.583-0.197,0.938-0.197c0.748,0,1.244,0.259,1.487,0.777C58.118,7.625,58.176,7.938,58.176,8.312z M57.203,8.601c0-0.583-0.063-1.001-0.191-1.253s-0.323-0.378-0.586-0.378c-0.466,0-0.699,0.421-0.699,1.262c0,1.081,0.262,1.621,0.784,1.621c0.325,0,0.533-0.179,0.622-0.538C57.179,9.127,57.203,8.889,57.203,8.601z"
       id="path54" /><path
       fill="#010101"
       d="M65.064,10.039l-0.035,0.039c-0.135-0.014-0.377-0.021-0.723-0.021c-0.289,0-0.494,0.007-0.615,0.021l-0.051-0.067c0.039-0.583,0.057-1.009,0.057-1.276v-0.32c0-0.344-0.01-0.575-0.031-0.692c-0.025-0.141-0.084-0.253-0.176-0.337s-0.215-0.126-0.373-0.126c-0.176,0-0.322,0.049-0.439,0.147s-0.176,0.224-0.176,0.376v1.048l0.014,0.556c0.006,0.15,0.018,0.249,0.039,0.295c0.014,0.03,0.047,0.053,0.096,0.066c0.041,0.012,0.156,0.027,0.34,0.046l0.039,0.035v0.211l-0.041,0.039c-0.285-0.014-0.572-0.021-0.861-0.021c-0.362,0-0.671,0.007-0.929,0.021l-0.039-0.039V9.831l0.035-0.042c0.148-0.014,0.25-0.027,0.307-0.039c0.042-0.01,0.072-0.045,0.091-0.105c0.015-0.045,0.022-0.175,0.025-0.391l0.007-1.135c0-0.263-0.021-0.45-0.06-0.562c-0.033-0.089-0.096-0.163-0.187-0.222c-0.082-0.054-0.19-0.081-0.324-0.081c-0.211,0-0.378,0.07-0.502,0.211c-0.059,0.066-0.094,0.119-0.104,0.158c-0.01,0.04-0.016,0.128-0.016,0.264V8.65c0,0.15,0.005,0.345,0.015,0.583c0.009,0.246,0.019,0.389,0.027,0.429c0.015,0.049,0.054,0.083,0.118,0.1s0.162,0.027,0.294,0.03l0.035,0.035v0.214l-0.035,0.035c-0.199-0.014-0.497-0.021-0.894-0.021c-0.419,0-0.739,0.008-0.96,0.024l-0.035-0.035V9.831l0.035-0.035c0.226-0.007,0.365-0.024,0.419-0.053c0.047-0.021,0.072-0.077,0.077-0.168c0.017-0.305,0.024-0.632,0.024-0.981V8.091c0-0.469-0.018-0.738-0.053-0.809c-0.023-0.047-0.073-0.076-0.151-0.088c-0.027-0.005-0.13-0.011-0.306-0.018l-0.035-0.035V6.945l0.035-0.039c0.422-0.04,0.866-0.137,1.333-0.292l0.077,0.046l-0.007,0.559l0.625-0.506c0.115-0.052,0.251-0.078,0.408-0.078c0.27,0,0.479,0.044,0.63,0.132c0.148,0.088,0.27,0.242,0.361,0.462l0.641-0.517c0.113-0.054,0.254-0.081,0.418-0.081c0.451,0,0.766,0.164,0.941,0.492c0.078,0.146,0.117,0.368,0.117,0.668c0,0.124-0.002,0.217-0.004,0.278L64.58,8.203c-0.004,0.113-0.008,0.188-0.008,0.225v0.457c0,0.354,0.006,0.58,0.018,0.677c0.012,0.098,0.039,0.159,0.082,0.185c0.041,0.026,0.162,0.041,0.357,0.046l0.035,0.039V10.039z"
       id="path56" /><path
       fill="#010101"
       d="M68.934,8.084c0,0.04-0.002,0.1-0.004,0.179l-0.039,0.049c-0.309,0.084-0.719,0.126-1.23,0.126c-0.092,0-0.229,0.001-0.414,0.005c-0.186,0.003-0.324,0.005-0.418,0.005c0.014,0.345,0.119,0.629,0.318,0.854c0.209,0.242,0.48,0.362,0.816,0.362c0.225,0,0.492-0.078,0.803-0.232l0.084,0.102l-0.154,0.348c-0.344,0.218-0.715,0.327-1.115,0.327c-0.527,0-0.938-0.149-1.229-0.447c-0.293-0.297-0.438-0.722-0.438-1.272c0-0.654,0.154-1.102,0.467-1.343c0.432-0.333,0.84-0.499,1.227-0.499c0.42,0,0.744,0.121,0.975,0.362C68.816,7.26,68.934,7.617,68.934,8.084z M68.016,7.992c0-0.633-0.197-0.949-0.59-0.949c-0.416,0-0.623,0.314-0.623,0.942v0.077c0.137,0.021,0.377,0.032,0.725,0.032c0.18,0,0.342-0.01,0.484-0.032C68.014,8.03,68.016,8.006,68.016,7.992z"
       id="path58" /><path
       fill="#010101"
       d="M71.889,9.596c-0.016,0.019-0.066,0.068-0.15,0.147c-0.139,0.131-0.258,0.251-0.355,0.359c-0.115,0.037-0.23,0.056-0.348,0.056c-0.326,0-0.564-0.095-0.715-0.285c-0.062-0.082-0.105-0.177-0.127-0.285c-0.023-0.129-0.033-0.297-0.031-0.506l0.012-0.84V7.363h-0.096L69.893,7.37h-0.145l-0.039-0.032V7.247l0.027-0.053c0.043-0.028,0.109-0.07,0.197-0.126c0.105-0.066,0.186-0.121,0.24-0.166V6.424c0-0.199-0.01-0.41-0.029-0.633c0.176-0.056,0.318-0.106,0.428-0.149s0.264-0.114,0.463-0.213l0.09,0.07c-0.027,0.291-0.047,0.551-0.059,0.781l-0.031,0.608h0.115c0.256,0,0.477-0.008,0.66-0.025l0.039,0.039l-0.049,0.412l-0.035,0.035h-0.73v1.192c0,0.382,0.004,0.607,0.014,0.675c0.012,0.099,0.053,0.178,0.125,0.239c0.07,0.061,0.168,0.091,0.289,0.091c0.096,0,0.213-0.026,0.348-0.077L71.889,9.596z"
       id="path60" /><path
       fill="#010101"
       d="M75.1,6.66l-0.023,0.625c-0.004,0.103-0.008,0.22-0.014,0.352l-0.148,0.046c-0.111-0.16-0.264-0.239-0.457-0.239c-0.176,0-0.322,0.07-0.436,0.211c-0.07,0.087-0.105,0.214-0.105,0.383v0.823c0,0.171,0.008,0.409,0.023,0.714c0.006,0.086,0.029,0.143,0.074,0.168s0.207,0.043,0.488,0.053l0.035,0.032v0.214l-0.035,0.035c-0.344-0.014-0.686-0.021-1.025-0.021c-0.42,0-0.74,0.008-0.961,0.024l-0.035-0.035V9.831l0.035-0.035c0.225-0.007,0.365-0.024,0.418-0.053c0.047-0.021,0.074-0.077,0.078-0.168c0.016-0.305,0.025-0.632,0.025-0.981V8.091c0-0.469-0.018-0.738-0.053-0.809c-0.023-0.047-0.074-0.076-0.152-0.088c-0.027-0.005-0.129-0.011-0.305-0.018l-0.035-0.035V6.945l0.035-0.039c0.422-0.04,0.865-0.137,1.332-0.292l0.076,0.046L73.93,7.349c0.145-0.169,0.32-0.366,0.527-0.591c0.096-0.094,0.227-0.141,0.395-0.141C74.949,6.618,75.031,6.632,75.1,6.66z"
       id="path62" /><path
       fill="#010101"
       d="M77.664,10.045l-0.035,0.035c-0.223-0.016-0.545-0.024-0.963-0.024c-0.42,0-0.74,0.008-0.961,0.024l-0.035-0.035V9.831l0.035-0.035c0.225-0.007,0.365-0.024,0.418-0.053c0.047-0.021,0.074-0.077,0.078-0.168c0.016-0.305,0.025-0.632,0.025-0.981V8.091c0-0.455-0.018-0.724-0.053-0.809c-0.02-0.047-0.07-0.076-0.152-0.088c-0.027-0.005-0.129-0.011-0.305-0.018l-0.035-0.035V6.945l0.035-0.039c0.449-0.04,0.902-0.137,1.359-0.292L77.15,6.66c-0.031,0.426-0.045,0.786-0.045,1.079v1.122c0,0.171,0.008,0.409,0.023,0.714c0.006,0.091,0.031,0.147,0.078,0.168c0.053,0.028,0.193,0.046,0.418,0.053l0.039,0.035V10.045z M77.178,5.458c0,0.15-0.053,0.278-0.158,0.385c-0.105,0.107-0.23,0.16-0.379,0.16c-0.15,0-0.277-0.053-0.383-0.16C76.152,5.736,76.1,5.607,76.1,5.458c0-0.155,0.053-0.285,0.16-0.39c0.105-0.105,0.232-0.158,0.381-0.158c0.145,0,0.271,0.053,0.377,0.158C77.125,5.173,77.178,5.303,77.178,5.458z"
       id="path64" /><path
       fill="#010101"
       d="M81.693,10.028l-0.035,0.035c-0.119-0.004-0.295-0.007-0.529-0.007c-0.305,0-0.486,0.002-0.543,0.007c-0.041-0.056-0.113-0.17-0.217-0.341c-0.053-0.084-0.129-0.212-0.229-0.383l-0.271-0.478c-0.297,0.394-0.574,0.794-0.83,1.202c-0.076-0.004-0.178-0.007-0.305-0.007c-0.158,0-0.262,0.002-0.312,0.007l-0.043-0.039V9.821l0.039-0.039c0.129-0.002,0.217-0.019,0.264-0.049c0.047-0.031,0.15-0.142,0.309-0.334c0.172-0.209,0.398-0.498,0.68-0.869l-0.461-0.77c-0.135-0.225-0.227-0.374-0.277-0.446c-0.057-0.082-0.107-0.137-0.152-0.164s-0.1-0.041-0.164-0.041c-0.021,0-0.07,0.005-0.148,0.014l-0.049-0.032l-0.039-0.19l0.031-0.049c0.396-0.078,0.734-0.152,1.014-0.225c0.18,0.133,0.453,0.526,0.818,1.178c0.174-0.225,0.367-0.498,0.584-0.819l0.186-0.278c0.143,0.007,0.264,0.011,0.363,0.011c0.094,0,0.186-0.003,0.277-0.011l0.041,0.042v0.2l-0.035,0.035c-0.123,0.009-0.207,0.026-0.25,0.049c-0.045,0.023-0.125,0.101-0.242,0.232c-0.074,0.082-0.213,0.248-0.418,0.496l-0.303,0.366l0.508,0.896c0.238,0.424,0.393,0.658,0.459,0.7c0.031,0.019,0.113,0.038,0.246,0.056l0.035,0.039V10.028z"
       id="path66" /></g><g
     id="g100"><path
       fill="#231F20"
       d="M87.387,6.792c-1.896,0-3.301-0.161-3.319-0.163l0.035-0.298c0.091,0.011,9.102,1.02,12.411-2.225l0.21,0.214c-1.437,1.409-4.007,2.225-7.639,2.426C88.493,6.779,87.921,6.792,87.387,6.792z"
       id="path102" /><path
       fill="#231F20"
       d="M97.271,12.021C93.96,8.774,84.95,9.785,84.859,9.796l-0.035-0.298c0.023-0.002,2.328-0.266,5.018-0.117c3.632,0.201,6.202,1.017,7.639,2.426L97.271,12.021z"
       id="path104" /><path
       style="fill:#231f20"
       d="m 93.969,8.846 -1.625,0 -0.25,-1.375 -1.862,0 0.125,1.375 -2.061,0 -0.55,-1.25 -1.327,0 0,1.25 -1.95,0 0,-0.3 1.649,0 0,-1.25 1.823,0 0.55,1.25 1.538,0 -0.125,-1.375 2.44,0 0.25,1.375 1.375,0 z"
       id="polygon106" /><path
       fill="#010101"
       d="M95.454,9.636l-0.171-0.103c0.004-0.006,0.385-0.651,0.36-1.521c-0.023-0.858-0.711-1.511-0.718-1.517l0.136-0.146c0.031,0.029,0.757,0.714,0.782,1.658C95.869,8.937,95.472,9.608,95.454,9.636z"
       id="path108" /><path
       fill="#010101"
       d="M95.934,10.196l-0.162-0.116c0.006-0.008,0.572-0.818,0.572-2.071c0-0.883-0.942-1.781-0.952-1.79l0.138-0.146c0.041,0.039,1.015,0.966,1.015,1.936C96.544,9.33,95.959,10.162,95.934,10.196z"
       id="path110" /><path
       fill="#010101"
       d="M96.71,10.371l-0.182-0.083c0.005-0.012,0.532-1.186,0.532-2.242c0-0.964-1.118-2.093-1.129-2.104l0.142-0.141C96.121,5.849,97.261,7,97.261,8.046C97.261,9.147,96.732,10.322,96.71,10.371z"
       id="path112" /><path
       fill="#010101"
       d="M97.441,10.5l-0.179-0.089c0.005-0.01,0.498-1.016,0.498-2.458c0-1.348-1.208-2.225-1.22-2.233l0.116-0.163c0.053,0.038,1.304,0.946,1.304,2.396C97.961,9.444,97.463,10.457,97.441,10.5z"
       id="path114" /><path
       fill="none"
       stroke="#010101"
       stroke-width="2"
       d="M98.777,9.354"
       stroke-miterlimit="10"
       id="path116" /></g><g
     id="g162"><path
       fill="#231F20"
       d="M76.853,35.898h-19.4v-6.301h19.4V35.898z M57.752,35.598h18.801v-5.7H57.752V35.598z"
       id="path164" /><path
       style="fill:#231f20"
       d="m 73.134,34.229 -2.052,-1.728 0.258,-0.306 1.748,1.472 2.271,-2.649 0.304,0.26 z"
       id="polygon166" /><g
       id="g168"><path
         fill="#010101"
         d="M59.709,31.439h0.848c0.147,0,0.276,0.016,0.388,0.047c0.11,0.032,0.202,0.076,0.276,0.133s0.13,0.124,0.167,0.202s0.057,0.163,0.057,0.256c0,0.076-0.015,0.147-0.043,0.213c-0.029,0.066-0.07,0.126-0.123,0.179c-0.053,0.054-0.115,0.1-0.189,0.139s-0.155,0.069-0.244,0.09l0.891,1.188H61.26l-0.852-1.151H60.12v1.151h-0.411V31.439z M60.12,32.613h0.237c0.093,0,0.178-0.012,0.256-0.037c0.078-0.024,0.146-0.059,0.203-0.104c0.058-0.045,0.103-0.1,0.135-0.165c0.032-0.064,0.048-0.136,0.048-0.216c0-0.073-0.013-0.14-0.038-0.202c-0.026-0.062-0.062-0.114-0.107-0.158s-0.101-0.078-0.164-0.103c-0.062-0.025-0.132-0.037-0.207-0.037H60.12V32.613z"
         id="path170" /><path
         fill="#010101"
         d="M63.055,33.928c-0.144,0-0.277-0.025-0.399-0.075s-0.228-0.119-0.316-0.206c-0.089-0.086-0.157-0.188-0.207-0.305c-0.051-0.117-0.075-0.241-0.075-0.374c0-0.139,0.024-0.271,0.075-0.393c0.05-0.122,0.118-0.229,0.207-0.32s0.194-0.163,0.316-0.215s0.256-0.079,0.399-0.079c0.145,0,0.277,0.024,0.398,0.072c0.121,0.048,0.227,0.114,0.315,0.198c0.089,0.083,0.159,0.182,0.209,0.295c0.05,0.113,0.074,0.234,0.074,0.363c0,0.143-0.024,0.277-0.074,0.404c-0.05,0.125-0.12,0.236-0.209,0.33s-0.194,0.169-0.315,0.223C63.332,33.9,63.199,33.928,63.055,33.928z M63.125,33.789c0.074,0,0.142-0.02,0.203-0.057c0.062-0.039,0.115-0.09,0.16-0.153s0.08-0.139,0.104-0.224c0.024-0.086,0.037-0.176,0.037-0.271c0-0.137-0.012-0.265-0.035-0.384c-0.023-0.119-0.062-0.223-0.114-0.312c-0.053-0.089-0.121-0.159-0.206-0.21c-0.084-0.051-0.188-0.077-0.311-0.077c-0.063,0-0.124,0.018-0.183,0.055c-0.059,0.036-0.11,0.086-0.156,0.149c-0.045,0.063-0.081,0.137-0.107,0.221c-0.027,0.084-0.041,0.174-0.041,0.269c0,0.137,0.015,0.267,0.044,0.387c0.029,0.121,0.071,0.226,0.127,0.315c0.055,0.09,0.123,0.16,0.204,0.213C62.932,33.764,63.023,33.789,63.125,33.789z"
         id="path172" /><path
         fill="#010101"
         d="M65.091,32.713v1.174H64.68v-2.449h0.411v1.116h1.23v-1.116h0.411v2.449h-0.411v-1.174H65.091z"
         id="path174" /><path
         fill="#010101"
         d="M68.198,33.789c0.061,0,0.121-0.008,0.18-0.024c0.06-0.017,0.112-0.041,0.158-0.073c0.047-0.033,0.084-0.074,0.112-0.121c0.027-0.047,0.042-0.102,0.042-0.164c0-0.075-0.02-0.142-0.059-0.199c-0.038-0.059-0.089-0.112-0.151-0.161c-0.062-0.049-0.135-0.095-0.216-0.138s-0.163-0.086-0.247-0.129c-0.083-0.043-0.166-0.088-0.247-0.136c-0.08-0.047-0.152-0.1-0.215-0.158s-0.113-0.123-0.152-0.195c-0.038-0.072-0.058-0.155-0.058-0.249s0.018-0.181,0.053-0.261c0.035-0.081,0.087-0.15,0.154-0.208c0.068-0.059,0.151-0.104,0.251-0.138c0.099-0.033,0.213-0.05,0.342-0.05c0.231,0,0.415,0.048,0.549,0.146c0.135,0.097,0.231,0.238,0.291,0.422l-0.211,0.097c-0.024-0.075-0.056-0.144-0.094-0.206c-0.038-0.062-0.084-0.115-0.137-0.16c-0.054-0.044-0.115-0.079-0.185-0.103c-0.068-0.024-0.146-0.036-0.233-0.036c-0.077,0-0.145,0.011-0.203,0.033c-0.058,0.021-0.105,0.05-0.144,0.084s-0.067,0.074-0.087,0.118c-0.019,0.044-0.028,0.089-0.028,0.134c0,0.064,0.02,0.124,0.06,0.177s0.092,0.104,0.156,0.152c0.064,0.048,0.139,0.094,0.222,0.138s0.168,0.089,0.254,0.135c0.086,0.045,0.171,0.093,0.254,0.142s0.157,0.104,0.222,0.162s0.116,0.123,0.156,0.192c0.04,0.07,0.06,0.147,0.06,0.232c0,0.098-0.019,0.189-0.055,0.273c-0.037,0.086-0.093,0.16-0.167,0.224c-0.073,0.063-0.165,0.114-0.274,0.151s-0.237,0.055-0.383,0.055c-0.117,0-0.222-0.013-0.314-0.038c-0.093-0.026-0.174-0.063-0.245-0.112c-0.071-0.05-0.132-0.109-0.182-0.182c-0.051-0.071-0.093-0.152-0.125-0.242l0.222-0.092c0.025,0.08,0.06,0.151,0.104,0.215c0.043,0.062,0.094,0.117,0.152,0.16c0.058,0.045,0.122,0.078,0.193,0.101C68.043,33.777,68.118,33.789,68.198,33.789z"
         id="path176" /></g></g><g
     id="g178"><path
       fill="#231F20"
       d="M46.266,35.648c-0.028,0-0.057-0.004-0.086-0.011c-0.927-0.231-2.654-1.158-2.564-3.007c0.089-1.822,1.712-2.74,2.558-2.971c0.187-0.051,0.379,0.059,0.43,0.246c0.051,0.186-0.059,0.378-0.245,0.429c-0.011,0.003-0.516,0.147-1.018,0.515c-0.645,0.472-0.99,1.083-1.025,1.815c-0.085,1.743,2.014,2.288,2.035,2.294c0.188,0.047,0.302,0.236,0.255,0.424C46.564,35.542,46.422,35.648,46.266,35.648z"
       id="path180" /><path
       fill="#231F20"
       d="M50.302,35.648c-0.027,0-0.057-0.004-0.085-0.011c-0.927-0.231-2.654-1.158-2.564-3.007c0.089-1.822,1.712-2.74,2.558-2.971c0.187-0.051,0.379,0.059,0.43,0.246c0.051,0.186-0.059,0.378-0.245,0.429c-0.011,0.003-0.516,0.147-1.018,0.515c-0.645,0.472-0.99,1.083-1.025,1.815c-0.085,1.743,2.014,2.288,2.035,2.294c0.188,0.047,0.302,0.236,0.255,0.424C50.602,35.542,50.459,35.648,50.302,35.648z"
       id="path182" /><path
       fill="#231F20"
       d="M50.315,32.998h-2.313c-0.193,0-0.351-0.156-0.351-0.35s0.157-0.351,0.351-0.351h2.313c0.193,0,0.35,0.157,0.35,0.351S50.509,32.998,50.315,32.998z"
       id="path184" /></g><g
     style="font-style:normal;font-weight:normal;font-size:31.99998283px;line-height:125%;font-family:sans-serif;letter-spacing:0px;word-spacing:0px;fill:#000000;fill-opacity:1;stroke:none;stroke-width:1px;stroke-linecap:butt;stroke-linejoin:miter;stroke-opacity:1"
     id="text3520" /><g
     style="font-style:normal;font-weight:normal;font-size:31.99998283px;line-height:125%;font-family:sans-serif;text-align:start;letter-spacing:0px;word-spacing:0px;writing-mode:lr-tb;text-anchor:start;fill:#000000;fill-opacity:1;stroke:none;stroke-width:1px;stroke-linecap:butt;stroke-linejoin:miter;stroke-opacity:1"
     id="text3532" /><g
     style="font-style:normal;font-variant:normal;font-weight:normal;font-stretch:normal;font-size:15.99999142px;line-height:125%;font-family:'DejaVu Serif';-inkscape-font-specification:'DejaVu Serif, Normal';text-align:start;letter-spacing:0px;word-spacing:0px;writing-mode:lr-tb;text-anchor:start;fill:#000000;fill-opacity:1;stroke:none;stroke-width:1px;stroke-linecap:butt;stroke-linejoin:miter;stroke-opacity:1"
     id="text3536" /><g
     style="font-style:normal;font-variant:normal;font-weight:normal;font-stretch:normal;font-size:11.99999332px;line-height:125%;font-family:'DejaVu Serif';-inkscape-font-specification:'DejaVu Serif, Normal';text-align:start;letter-spacing:0px;word-spacing:0px;writing-mode:lr-tb;text-anchor:start;fill:#f3f3f3;fill-opacity:1;stroke:none;stroke-width:1px;stroke-linecap:butt;stroke-linejoin:miter;stroke-opacity:1"
     id="text3540" /><g
     style="font-style:normal;font-variant:normal;font-weight:normal;font-stretch:normal;font-size:8.99999523px;line-height:125%;font-family:'DejaVu Serif';-inkscape-font-specification:'DejaVu Serif, Normal';text-align:start;letter-spacing:0px;word-spacing:0px;writing-mode:lr-tb;text-anchor:start;fill:#000000;fill-opacity:1;stroke:none;stroke-width:1px;stroke-linecap:butt;stroke-linejoin:miter;stroke-opacity:1"
     id="text3544" /><g
     style="font-style:normal;font-variant:normal;font-weight:normal;font-stretch:normal;font-size:8.99999523px;line-height:125%;font-family:'DejaVu Serif';-inkscape-font-specification:'DejaVu Serif, Normal';text-align:start;letter-spacing:0px;word-spacing:0px;writing-mode:lr-tb;text-anchor:start;fill:#000000;fill-opacity:1;stroke:none;stroke-width:1px;stroke-linecap:butt;stroke-linejoin:miter;stroke-opacity:1"
     id="text3548" /><g
     style="font-style:normal;font-variant:normal;font-weight:normal;font-stretch:normal;font-size:5.99999666px;line-height:125%;font-family:'DejaVu Serif';-inkscape-font-specification:'DejaVu Serif, Normal';text-align:start;letter-spacing:0px;word-spacing:0px;writing-mode:lr-tb;text-anchor:start;fill:#000000;fill-opacity:1;stroke:none;stroke-width:1px;stroke-linecap:butt;stroke-linejoin:miter;stroke-opacity:1"
     id="text3552"><path
       d="m 35.29229,17.226543 0,-0.310546 0.55664,0 0,-3.749998 -0.55664,0 0,-0.313477 1.708006,0 0,0.313477 -0.55664,0 0,1.511718 2.267577,0 0,-1.511718 -0.55664,0 0,-0.313477 1.708007,0 0,0.313477 -0.556641,0 0,3.749998 0.556641,0 0,0.310546 -1.708007,0 0,-0.310546 0.55664,0 0,-1.880859 -2.267577,0 0,1.880859 0.55664,0 0,0.310546 -1.708006,0 z"
       style=""
       id="path3427" /><path
       d="m 42.18584,15.354474 -1.069335,1.561523 0.565429,0 0,0.310546 -1.447264,0 0,-0.310546 0.503906,0 1.259765,-1.836913 -1.277343,-1.913085 -0.46875,0 0,-0.313477 1.734374,0 0,0.313477 -0.515625,0 0.9375,1.409179 0.963866,-1.409179 -0.562499,0 0,-0.313477 1.432616,0 0,0.313477 -0.492187,0 -1.157226,1.684569 1.379882,2.065429 0.46875,0 0,0.310546 -1.734374,0 0,-0.310546 0.521484,0 -1.042969,-1.561523 z"
       style=""
       id="path3429" /><path
       d="m 45.329393,17.226543 0,-0.310546 0.761718,0 0,-3.63867 -0.881835,0.571289 0,-0.383789 1.066405,-0.691406 0.404297,0 0,4.142576 0.761718,0 0,0.310546 -2.112303,0 z"
       style=""
       id="path3431" /><path
       d="m 51.059859,17.226543 0,-0.310546 0.761718,0 0,-3.63867 -0.881835,0.571289 0,-0.383789 1.066405,-0.691406 0.404297,0 0,4.142576 0.761718,0 0,0.310546 -2.112303,0 z"
       style=""
       id="path3433" /><path
       d="m 56.122355,15.744122 0,-2.32617 -1.49414,2.32617 1.49414,0 z m 1.289062,1.482421 -1.992186,0 0,-0.310546 0.703124,0 0,-0.858398 -1.910155,0 0,-0.319336 1.916015,-2.964842 0.580077,0 0,2.970701 0.834961,0 0,0.313477 -0.834961,0 0,0.858398 0.703125,0 0,0.310546 z"
       style=""
       id="path3435" /><path
       d="m 59.942666,15.744122 0,-2.32617 -1.49414,2.32617 1.49414,0 z m 1.289062,1.482421 -1.992187,0 0,-0.310546 0.703125,0 0,-0.858398 -1.910155,0 0,-0.319336 1.916014,-2.964842 0.580078,0 0,2.970701 0.83496,0 0,0.313477 -0.83496,0 0,0.858398 0.703125,0 0,0.310546 z"
       style=""
       id="path3437" /><path
       d="m 62.23368,16.921856 q 0,-0.164062 0.111328,-0.27832 0.111329,-0.114258 0.278321,-0.114258 0.161132,0 0.27539,0.114258 0.114258,0.114258 0.114258,0.27832 0,0.161133 -0.114258,0.275391 -0.114258,0.114257 -0.27539,0.114257 -0.166992,0 -0.278321,-0.111328 -0.111328,-0.114257 -0.111328,-0.27832 z"
       style=""
       id="path3439" /><path
       d="m 66.373328,16.031232 q 0,-0.46875 -0.234375,-0.726563 -0.231445,-0.260742 -0.65332,-0.260742 -0.421875,0 -0.65625,0.260742 -0.231445,0.257813 -0.231445,0.726563 0,0.471679 0.231445,0.732421 0.234375,0.257812 0.65625,0.257812 0.421875,0 0.65332,-0.257812 0.234375,-0.260742 0.234375,-0.732421 z M 66.25321,13.907209 q 0,-0.398437 -0.202148,-0.621093 -0.202148,-0.222656 -0.565429,-0.222656 -0.360352,0 -0.56543,0.222656 -0.202148,0.222656 -0.202148,0.621093 0,0.401367 0.202148,0.624023 0.205078,0.222657 0.56543,0.222657 0.363281,0 0.565429,-0.222657 0.202148,-0.222656 0.202148,-0.624023 z m -0.316406,0.990234 q 0.498047,0.06738 0.776367,0.369141 0.27832,0.298828 0.27832,0.764648 0,0.615234 -0.389648,0.949218 -0.389648,0.331054 -1.11621,0.331054 -0.723633,0 -1.116211,-0.331054 -0.389648,-0.333984 -0.389648,-0.949218 0,-0.46582 0.27832,-0.764648 0.278321,-0.301758 0.779297,-0.369141 -0.442383,-0.0791 -0.679687,-0.333984 -0.234375,-0.257812 -0.234375,-0.65625 0,-0.527343 0.363281,-0.829101 0.363281,-0.304687 0.999023,-0.304687 0.635742,0 0.999023,0.304687 0.363281,0.301758 0.363281,0.829101 0,0.398438 -0.237305,0.65625 -0.234375,0.254883 -0.673828,0.333984 z"
       style=""
       id="path3441" /><path
       d="m 69.305941,17.021465 q 0.448242,0 0.670899,-0.492187 0.222656,-0.492187 0.222656,-1.485351 0,-0.996093 -0.222656,-1.48828 -0.222657,-0.492187 -0.670899,-0.492187 -0.448241,0 -0.670898,0.492187 -0.222656,0.492187 -0.222656,1.48828 0,0.993164 0.222656,1.485351 0.222657,0.492187 0.670898,0.492187 z m 0,0.290039 q -0.711913,0 -1.11328,-0.597656 -0.398437,-0.597656 -0.398437,-1.669921 0,-1.075194 0.398437,-1.67285 0.401367,-0.597656 1.11328,-0.597656 0.714844,0 1.113281,0.597656 0.398437,0.597656 0.398437,1.67285 0,1.072265 -0.398437,1.669921 -0.398437,0.597656 -1.113281,0.597656 z"
       style=""
       id="path3443" /><path
       d="m 73.126254,17.021465 q 0.448242,0 0.670898,-0.492187 0.222656,-0.492187 0.222656,-1.485351 0,-0.996093 -0.222656,-1.48828 -0.222656,-0.492187 -0.670898,-0.492187 -0.448242,0 -0.670898,0.492187 -0.222656,0.492187 -0.222656,1.48828 0,0.993164 0.222656,1.485351 0.222656,0.492187 0.670898,0.492187 z m 0,0.290039 q -0.711914,0 -1.113281,-0.597656 -0.398437,-0.597656 -0.398437,-1.669921 0,-1.075194 0.398437,-1.67285 0.401367,-0.597656 1.113281,-0.597656 0.714843,0 1.113281,0.597656 0.398437,0.597656 0.398437,1.67285 0,1.072265 -0.398437,1.669921 -0.398438,0.597656 -1.113281,0.597656 z"
       style=""
       id="path3445" /><path
       d="m 75.303009,15.38963 1.499999,0 0,0.457031 -1.499999,0 0,-0.457031 z"
       style=""
       id="path3447" /><path
       d="m 77.919219,17.226543 0,-0.310546 0.761719,0 0,-3.63867 -0.881836,0.571289 0,-0.383789 1.066406,-0.691406 0.404297,0 0,4.142576 0.761718,0 0,0.310546 -2.112304,0 z"
       style=""
       id="path3449" /><path
       d="m 82.794215,17.021465 q 0.448242,0 0.670898,-0.492187 0.222656,-0.492187 0.222656,-1.485351 0,-0.996093 -0.222656,-1.48828 -0.222656,-0.492187 -0.670898,-0.492187 -0.448242,0 -0.670898,0.492187 -0.222656,0.492187 -0.222656,1.48828 0,0.993164 0.222656,1.485351 0.222656,0.492187 0.670898,0.492187 z m 0,0.290039 q -0.711914,0 -1.113281,-0.597656 -0.398437,-0.597656 -0.398437,-1.669921 0,-1.075194 0.398437,-1.67285 0.401367,-0.597656 1.113281,-0.597656 0.714843,0 1.113281,0.597656 0.398437,0.597656 0.398437,1.67285 0,1.072265 -0.398437,1.669921 -0.398438,0.597656 -1.113281,0.597656 z"
       style=""
       id="path3451" /></g><g
     style="font-style:normal;font-variant:normal;font-weight:normal;font-stretch:normal;font-size:3.99999785px;line-height:125%;font-family:'DejaVu Serif';-inkscape-font-specification:'DejaVu Serif, Normal';text-align:start;letter-spacing:0px;word-spacing:0px;writing-mode:lr-tb;text-anchor:start;fill:#000000;fill-opacity:1;stroke:none;stroke-width:1px;stroke-linecap:butt;stroke-linejoin:miter;stroke-opacity:1"
     id="text3556"><path
       d="m 27.580725,20.746034 q 0.228515,-0.08594 0.437499,-0.130859 0.210938,-0.04492 0.394531,-0.04492 0.427734,0 0.667969,0.185547 0.240234,0.183593 0.240234,0.511718 0,0.263672 -0.166016,0.441406 -0.166015,0.175781 -0.470702,0.238281 0.359374,0.05078 0.55664,0.261719 0.199219,0.208984 0.199219,0.542969 0,0.408202 -0.275391,0.626952 -0.273437,0.216797 -0.789062,0.216797 -0.228516,0 -0.447265,-0.04883 -0.216797,-0.04883 -0.431641,-0.148437 l 0,-0.566406 0.21875,0 q 0.01953,0.281249 0.189453,0.425781 0.169922,0.144531 0.478515,0.144531 0.298828,0 0.470703,-0.171875 0.173828,-0.173828 0.173828,-0.474609 0,-0.34375 -0.177734,-0.519531 -0.177734,-0.177734 -0.521484,-0.177734 l -0.185547,0 0,-0.199219 0.09766,0 q 0.341797,0 0.511719,-0.140625 0.171875,-0.142578 0.171875,-0.427734 0,-0.255859 -0.140625,-0.390625 -0.140625,-0.136719 -0.404297,-0.136719 -0.263672,0 -0.410156,0.125 -0.144531,0.125 -0.169922,0.371094 l -0.218749,0 0,-0.513672 z"
       style=""
       id="path3454" /><path
       d="m 31.01041,23.402283 q 0.298828,0 0.447265,-0.328125 0.148438,-0.328125 0.148438,-0.990234 0,-0.664062 -0.148438,-0.992187 -0.148437,-0.328125 -0.447265,-0.328125 -0.298828,0 -0.447265,0.328125 -0.148438,0.328125 -0.148438,0.992187 0,0.662109 0.148438,0.990234 0.148437,0.328125 0.447265,0.328125 z m 0,0.193359 q -0.474609,0 -0.742187,-0.398437 -0.265625,-0.398438 -0.265625,-1.113281 0,-0.716796 0.265625,-1.115234 0.267578,-0.398437 0.742187,-0.398437 0.476562,0 0.742187,0.398437 0.265625,0.398438 0.265625,1.115234 0,0.714843 -0.265625,1.113281 -0.265625,0.398437 -0.742187,0.398437 z"
       style=""
       id="path3456" /><path
       d="m 33.557284,23.402283 q 0.298828,0 0.447265,-0.328125 0.148437,-0.328125 0.148437,-0.990234 0,-0.664062 -0.148437,-0.992187 -0.148437,-0.328125 -0.447265,-0.328125 -0.298828,0 -0.447266,0.328125 -0.148437,0.328125 -0.148437,0.992187 0,0.662109 0.148437,0.990234 0.148438,0.328125 0.447266,0.328125 z m 0,0.193359 q -0.474609,0 -0.742187,-0.398437 -0.265625,-0.398438 -0.265625,-1.113281 0,-0.716796 0.265625,-1.115234 0.267578,-0.398437 0.742187,-0.398437 0.476562,0 0.742187,0.398437 0.265625,0.398438 0.265625,1.115234 0,0.714843 -0.265625,1.113281 -0.265625,0.398437 -0.742187,0.398437 z"
       style=""
       id="path3458" /><path
       d="m 36.904938,21.867127 q 0.103516,-0.228515 0.263672,-0.343749 0.162109,-0.117188 0.376953,-0.117188 0.326171,0 0.486328,0.203125 0.160156,0.201172 0.160156,0.609375 l 0,1.11328 0.324218,0 0,0.207031 -0.996093,0 0,-0.207031 0.3125,0 0,-1.072265 q 0,-0.318359 -0.09375,-0.453124 -0.09375,-0.134766 -0.310547,-0.134766 -0.240234,0 -0.367187,0.18164 -0.125,0.181641 -0.125,0.529297 l 0,0.949218 0.3125,0 0,0.207031 -0.984375,0 0,-0.207031 0.3125,0 0,-1.085937 q 0,-0.310546 -0.09375,-0.441406 -0.09375,-0.132812 -0.310546,-0.132812 -0.240235,0 -0.367188,0.18164 -0.125,0.181641 -0.125,0.529297 l 0,0.949218 0.3125,0 0,0.207031 -0.996093,0 0,-0.207031 0.324219,0 0,-1.664061 -0.34375,0 0,-0.205078 0.703124,0 0,0.36914 q 0.09961,-0.207031 0.253906,-0.316406 0.154297,-0.109375 0.34961,-0.109375 0.242187,0 0.404296,0.121094 0.16211,0.11914 0.216797,0.339843 z"
       style=""
       id="path3460" /><path
       d="m 41.678373,23.539001 -0.320313,0 -0.667968,-2.371092 -0.667968,2.371092 -0.320313,0 -0.763671,-2.707029 -0.289063,0 0,-0.208985 1.064453,0 0,0.208985 -0.363281,0 0.607421,2.154295 0.664063,-2.36328 0.316406,0 0.675781,2.388671 0.611327,-2.179686 -0.335937,0 0,-0.208985 0.839843,0 0,0.208985 -0.287109,0 -0.763671,2.707029 z"
       style=""
       id="path3462" /><path
       d="m 44.207668,23.539001 0,-0.207031 0.392578,0 0,-2.499998 -0.392578,0 0,-0.208985 0.748047,0 1.748046,2.30078 0,-2.091795 -0.390625,0 0,-0.208985 1.023437,0 0,0.208985 -0.392578,0 0,2.76367 -0.236328,0 -1.867187,-2.45703 0,2.193358 0.392578,0 0,0.207031 -1.02539,0 z"
       style=""
       id="path3464" /><path
       d="m 48.500635,23.33197 0.583984,0 q 0.351562,0 0.513671,-0.152343 0.16211,-0.152344 0.16211,-0.484375 0,-0.330078 -0.16211,-0.480469 -0.160156,-0.152343 -0.513671,-0.152343 l -0.583984,0 0,1.26953 z m 0,-1.476561 0.496093,0 q 0.320312,0 0.466797,-0.123047 0.148437,-0.123047 0.148437,-0.388672 0,-0.267578 -0.148437,-0.388672 -0.146485,-0.123046 -0.466797,-0.123046 l -0.496093,0 0,1.023437 z m -0.767578,1.683592 0,-0.207031 0.371093,0 0,-2.499998 -0.371093,0 0,-0.208985 1.439452,0 q 0.441406,0 0.664062,0.181641 0.22461,0.179687 0.22461,0.539062 0,0.259766 -0.15625,0.414062 -0.154297,0.154297 -0.453125,0.189453 0.371094,0.04687 0.5625,0.238282 0.193359,0.189453 0.193359,0.509765 0,0.433593 -0.273437,0.638671 -0.273438,0.205078 -0.853516,0.205078 l -1.347655,0 z"
       style=""
       id="path3466" /><path
       d="m 50.670555,23.539001 0,-0.207031 0.371094,0 0,-2.499998 -0.371094,0 0,-0.208985 2.386717,0 0,0.648438 -0.240234,0 0,-0.408203 -1.378905,0 0,0.976562 0.996093,0 0,-0.365235 0.240234,0 0,0.96875 -0.240234,0 0,-0.365234 -0.996093,0 0,1.253905 0.466796,0 0,0.207031 -1.234374,0 z"
       style=""
       id="path3468" /><path
       d="m 53.443991,23.539001 0,-0.207031 0.371093,0 0,-2.499998 -0.392578,0 0,-0.208985 0.849609,0 1.023437,2.076171 1.023437,-2.076171 0.796875,0 0,0.208985 -0.388672,0 0,2.499998 0.373047,0 0,0.207031 -1.140625,0 0,-0.207031 0.371094,0 0,-2.253905 -1,2.033202 -0.27539,0 -1,-2.033202 0,2.253905 0.371094,0 0,0.207031 -0.982421,0 z"
       style=""
       id="path3470" /><path
       d="m 59.289692,20.831972 0.861327,2.23828 0.859375,-2.23828 -0.328125,0 0,-0.208985 0.855468,0 0,0.208985 -0.283203,0 -1.041015,2.707029 -0.335937,0 -1.035156,-2.707029 -0.291015,0 0,-0.208985 1.062499,0 0,0.208985 -0.324218,0 z"
       style=""
       id="path3472" /><path
       d="m 61.701799,23.539001 0,-0.207031 0.371094,0 0,-2.499998 -0.371094,0 0,-0.208985 1.138672,0 0,0.208985 -0.371094,0 0,1.007812 1.511718,0 0,-1.007812 -0.371094,0 0,-0.208985 1.138672,0 0,0.208985 -0.371094,0 0,2.499998 0.371094,0 0,0.207031 -1.138672,0 0,-0.207031 0.371094,0 0,-1.253905 -1.511718,0 0,1.253905 0.371094,0 0,0.207031 -1.138672,0 z"
       style=""
       id="path3474" /><path
       d="m 65.193983,23.539001 0,-0.207031 0.371094,0 0,-2.499998 -0.371094,0 0,-0.208985 2.386717,0 0,0.648438 -0.240234,0 0,-0.408203 -1.378905,0 0,0.976562 0.996093,0 0,-0.365235 0.240234,0 0,0.96875 -0.240234,0 0,-0.365234 -0.996093,0 0,1.253905 0.466796,0 0,0.207031 -1.234374,0 z"
       style=""
       id="path3476" /><path
       d="m 69.783826,23.539001 0,-0.207031 0.373047,0 0,-2.476561 -0.857421,0 0,0.455078 -0.240235,0 0,-0.6875 2.589843,0 0,0.6875 -0.240234,0 0,-0.455078 -0.857422,0 0,2.476561 0.373047,0 0,0.207031 -1.140625,0 z"
       style=""
       id="path3478" /><path
       d="m 73.604138,21.458924 0,0.519531 -0.207031,0 q -0.0098,-0.154296 -0.08594,-0.230468 -0.07617,-0.07617 -0.222656,-0.07617 -0.265625,0 -0.408203,0.183594 -0.140625,0.183593 -0.140625,0.527343 l 0,0.949218 0.416015,0 0,0.207031 -1.099609,0 0,-0.207031 0.324219,0 0,-1.664061 -0.34375,0 0,-0.205078 0.703125,0 0,0.36914 q 0.105468,-0.216797 0.271484,-0.320312 0.166016,-0.105469 0.404297,-0.105469 0.08789,0 0.183593,0.01367 0.09766,0.01367 0.205078,0.03906 z"
       style=""
       id="path3480" /><path
       d="m 75.197885,22.886658 0,-0.439453 -0.462891,0 q -0.267578,0 -0.398437,0.115234 -0.130859,0.115235 -0.130859,0.353516 0,0.216797 0.132812,0.34375 0.132813,0.126953 0.359375,0.126953 0.224609,0 0.361328,-0.138672 0.138672,-0.138672 0.138672,-0.361328 z m 0.359374,-0.644531 0,1.089843 0.320313,0 0,0.207031 -0.679687,0 0,-0.224609 q -0.119141,0.144531 -0.275391,0.212891 -0.15625,0.06836 -0.365234,0.06836 -0.345703,0 -0.548828,-0.183594 -0.203125,-0.183593 -0.203125,-0.496093 0,-0.322266 0.232422,-0.5 0.232422,-0.177734 0.65625,-0.177734 l 0.503906,0 0,-0.142578 q 0,-0.236328 -0.144532,-0.365234 -0.142578,-0.13086 -0.402343,-0.13086 -0.214844,0 -0.341797,0.09766 -0.126953,0.09766 -0.158203,0.289062 l -0.185547,0 0,-0.419922 q 0.1875,-0.08008 0.363282,-0.11914 0.177734,-0.04102 0.345702,-0.04102 0.431641,0 0.65625,0.214844 0.226562,0.21289 0.226562,0.621093 z"
       style=""
       id="path3482" /><path
       d="m 76.152964,23.539001 0,-0.207031 0.324218,0 0,-1.660155 -0.34375,0 0,-0.208984 0.703125,0 0,0.36914 q 0.09961,-0.210937 0.257812,-0.318359 0.160156,-0.107422 0.371094,-0.107422 0.34375,0 0.505859,0.197266 0.162109,0.197265 0.162109,0.615234 l 0,1.11328 0.320313,0 0,0.207031 -0.992187,0 0,-0.207031 0.310546,0 0,-0.999999 q 0,-0.380859 -0.09375,-0.521484 -0.09375,-0.142578 -0.330078,-0.142578 -0.249999,0 -0.380859,0.183593 -0.130859,0.181641 -0.130859,0.53125 l 0,0.949218 0.3125,0 0,0.207031 -0.996093,0 z"
       style=""
       id="path3484" /><path
       d="m 78.791635,23.423767 0,-0.484375 0.207032,0 q 0.0078,0.232422 0.144531,0.347656 0.138672,0.115235 0.408203,0.115235 0.242187,0 0.36914,-0.08984 0.126953,-0.0918 0.126953,-0.265625 0,-0.136718 -0.09375,-0.220703 -0.0918,-0.08398 -0.390625,-0.179687 l -0.259765,-0.08789 q -0.267578,-0.08594 -0.388672,-0.214843 -0.11914,-0.128907 -0.11914,-0.328125 0,-0.285156 0.208984,-0.447266 0.208984,-0.162109 0.578125,-0.162109 0.164062,0 0.345703,0.04297 0.18164,0.04297 0.374999,0.125 l 0,0.453125 -0.207031,0 q -0.0078,-0.201172 -0.140625,-0.314453 -0.132812,-0.113282 -0.361328,-0.113282 -0.226562,0 -0.343749,0.08008 -0.115235,0.08008 -0.115235,0.240235 0,0.130859 0.08789,0.210937 0.08789,0.07813 0.351562,0.160156 l 0.285156,0.08789 q 0.294922,0.0918 0.423828,0.230468 0.130859,0.136719 0.130859,0.353516 0,0.294922 -0.226562,0.464843 -0.224609,0.167969 -0.621093,0.167969 -0.201172,0 -0.392578,-0.04297 -0.191406,-0.04297 -0.382813,-0.128906 z"
       style=""
       id="path3486" /><path
       d="m 82.693974,21.867127 q 0.103516,-0.228515 0.263672,-0.343749 0.162109,-0.117188 0.376953,-0.117188 0.326172,0 0.486328,0.203125 0.160156,0.201172 0.160156,0.609375 l 0,1.11328 0.324219,0 0,0.207031 -0.996094,0 0,-0.207031 0.3125,0 0,-1.072265 q 0,-0.318359 -0.09375,-0.453124 -0.09375,-0.134766 -0.310546,-0.134766 -0.240235,0 -0.367188,0.18164 -0.125,0.181641 -0.125,0.529297 l 0,0.949218 0.3125,0 0,0.207031 -0.984374,0 0,-0.207031 0.3125,0 0,-1.085937 q 0,-0.310546 -0.09375,-0.441406 -0.09375,-0.132812 -0.310547,-0.132812 -0.240234,0 -0.367187,0.18164 -0.125,0.181641 -0.125,0.529297 l 0,0.949218 0.312499,0 0,0.207031 -0.996093,0 0,-0.207031 0.324219,0 0,-1.664061 -0.34375,0 0,-0.205078 0.703125,0 0,0.36914 q 0.09961,-0.207031 0.253906,-0.316406 0.154297,-0.109375 0.349609,-0.109375 0.242187,0 0.404297,0.121094 0.162109,0.11914 0.216796,0.339843 z"
       style=""
       id="path3488" /><path
       d="m 84.807256,20.8183 q 0,-0.08984 0.06445,-0.15625 0.06641,-0.06641 0.158203,-0.06641 0.08984,0 0.154296,0.06641 0.06641,0.06641 0.06641,0.15625 0,0.0918 -0.06445,0.15625 -0.06445,0.06445 -0.15625,0.06445 -0.0918,0 -0.158203,-0.06445 -0.06445,-0.06445 -0.06445,-0.15625 z m 0.458985,2.51367 0.339843,0 0,0.207031 -1.042968,0 0,-0.207031 0.34375,0 0,-1.660155 -0.34375,0 0,-0.208984 0.703125,0 0,1.869139 z"
       style=""
       id="path3490" /><path
       d="m 86.131471,21.671815 -0.316406,0 0,-0.208984 0.316406,0 0,-0.644531 0.361328,0 0,0.644531 0.675781,0 0,0.208984 -0.675781,0 0,1.318359 q 0,0.263671 0.05078,0.33789 0.05078,0.07422 0.187499,0.07422 0.140625,0 0.205078,-0.08203 0.06445,-0.08398 0.06836,-0.269532 l 0.271484,0 q -0.01563,0.283203 -0.154297,0.414063 -0.138672,0.130859 -0.421875,0.130859 -0.310546,0 -0.439452,-0.136719 -0.128907,-0.138671 -0.128907,-0.468749 l 0,-1.318359 z"
       style=""
       id="path3492" /><path
       d="m 87.740846,21.671815 -0.316406,0 0,-0.208984 0.316406,0 0,-0.644531 0.361328,0 0,0.644531 0.675781,0 0,0.208984 -0.675781,0 0,1.318359 q 0,0.263671 0.05078,0.33789 0.05078,0.07422 0.187499,0.07422 0.140625,0 0.205078,-0.08203 0.06445,-0.08398 0.06836,-0.269532 l 0.271484,0 q -0.01563,0.283203 -0.154297,0.414063 -0.138672,0.130859 -0.421875,0.130859 -0.310546,0 -0.439452,-0.136719 -0.128907,-0.138671 -0.128907,-0.468749 l 0,-1.318359 z"
       style=""
       id="path3494" /><path
       d="m 91.086549,22.539002 -1.548828,0 0,0.01563 q 0,0.419922 0.158203,0.634765 0.158203,0.212891 0.466797,0.212891 0.236328,0 0.386719,-0.123047 0.152343,-0.125 0.21289,-0.36914 l 0.289062,0 q -0.08594,0.341796 -0.318359,0.513671 -0.230468,0.171875 -0.607421,0.171875 -0.455078,0 -0.732422,-0.298828 -0.27539,-0.300781 -0.27539,-0.796874 0,-0.492188 0.271484,-0.792969 0.271484,-0.300781 0.71289,-0.300781 0.470703,0 0.722656,0.291016 0.251953,0.289062 0.261719,0.841796 z m -0.423828,-0.207031 q -0.01172,-0.363281 -0.154297,-0.546875 -0.140625,-0.185547 -0.40625,-0.185547 -0.248047,0 -0.390625,0.185547 -0.142578,0.185547 -0.173828,0.546875 l 1.125,0 z"
       style=""
       id="path3496" /><path
       d="m 93.197873,21.458924 0,0.519531 -0.207031,0 q -0.0098,-0.154296 -0.08594,-0.230468 -0.07617,-0.07617 -0.222656,-0.07617 -0.265625,0 -0.408203,0.183594 -0.140625,0.183593 -0.140625,0.527343 l 0,0.949218 0.416016,0 0,0.207031 -1.099609,0 0,-0.207031 0.324219,0 0,-1.664061 -0.34375,0 0,-0.205078 0.703124,0 0,0.36914 q 0.105469,-0.216797 0.271485,-0.320312 0.166015,-0.105469 0.404296,-0.105469 0.08789,0 0.183594,0.01367 0.09766,0.01367 0.205078,0.03906 z"
       style=""
       id="path3498" /></g></svg>